<svg xmlns="http://www.w3.org/2000/svg" aria-hidden="true" style="position:absolute;width:0;height:0;overflow:hidden">
  <defs>
    <symbol id="icon-bee" viewBox="0 0 32 32">
      <path fill="#fffdf7" d="M16 9.333s3.867 4 6.4 6.8a3.996 3.996 0 0 0 5.352.324 4.002 4.002 0 0 0-.546-6.618 3.99 3.99 0 0 0-1.872-.506h-9.333z" style="fill:var(--color1, #fffdf7)"/>
      <path fill="#fffdf7" d="M6.667 9.333a4.005 4.005 0 0 0-3.909 3.669 4.002 4.002 0 0 0 6.843 3.131c2.533-2.8 6.4-6.8 6.4-6.8H6.668z" style="fill:var(--color1, #fffdf7)"/>
      <path fill="#3e3a36" d="M12 8v1.333h8V8a4.003 4.003 0 0 0-4-4 4.003 4.003 0 0 0-4 4z" style="fill:var(--color2, #3e3a36)"/>
      <path fill="none" stroke="#3e3a36" stroke-linecap="round" stroke-linejoin="round" stroke-width="1.333" d="m10.667 2.667 2.507 2.507m5.653-.001 2.507-2.507M12 9.333V8a4.003 4.003 0 0 1 4-4 4.003 4.003 0 0 1 4 4v1.333m-8 0h4m-4 0H6.667m13.333 0h5.333m-5.333 0h-4m-9.333 0a4.005 4.005 0 0 0-3.909 3.669 4.002 4.002 0 0 0 6.843 3.131c2.533-2.8 6.4-6.8 6.4-6.8m-9.334 0h18.667m-9.334 0s3.867 4 6.4 6.8a3.996 3.996 0 0 0 5.352.324 4.002 4.002 0 0 0-.546-6.618 3.99 3.99 0 0 0-1.872-.506M10.08 16h11.827M10 22.667h12" style="stroke:var(--color2, #3e3a36)"/>
      <path fill="#f4c05d" d="M16 29.333s6.667-2.933 6.667-10.667H9.334c0 7.733 6.667 10.667 6.667 10.667z" style="fill:var(--color3, #f4c05d)"/>
      <path fill="#3e3a36" d="M22.667 18.667c-.133-1.6-.133-1.467-1.333-2.667H10.667c-1.2 1.2-1.2 1.067-1.333 2.667h13.333z" style="fill:var(--color2, #3e3a36)"/>
      <path fill="#f4c05d" d="M10.667 16h10.667l-5.333-6-5.333 6z" style="fill:var(--color3, #f4c05d)"/>
      <path fill="none" stroke="#3e3a36" stroke-linecap="round" stroke-linejoin="round" stroke-width="1.333" d="M21.333 16c1.2 1.2 1.2 1.067 1.333 2.667M21.333 16H10.666m10.667 0L16 10l-5.333 6m12 2.667C22.667 26.4 16 29.334 16 29.334s-6.667-2.933-6.667-10.667m13.334 0H9.334m-.001 0c.133-1.6.133-1.467 1.333-2.667" style="stroke:var(--color2, #3e3a36)"/>
    </symbol>
    <symbol id="icon-check" viewBox="0 0 32 32">
      <path fill="#516c3d" d="M16 27.543a11.523 11.523 0 0 1-11.52-11.52 11.522 11.522 0 0 1 19.666-8.146 11.525 11.525 0 0 1 2.497 12.554 11.503 11.503 0 0 1-6.234 6.234 11.522 11.522 0 0 1-4.409.877zm-.297-6.861 6.4-7.68-1.966-1.638-5.504 6.604-2.848-2.849-1.81 1.81 4.831 4.831.897-1.076z" style="fill:var(--color4, #516c3d)"/>
    </symbol>
    <symbol id="icon-clock" viewBox="0 0 32 32">
      <path fill="#f4c05d" d="M16 28a12 12 0 1 0 .002-24.003A12 12 0 0 0 16 28.002zm14.667-12c0 8.1-6.567 14.667-14.667 14.667S1.333 24.1 1.333 16 7.9 1.333 16 1.333 30.667 7.9 30.667 16zM20 21.885l-5.333-5.333V7.333h2.667v8.115L21.886 20l-1.885 1.885z" style="fill:var(--color3, #f4c05d)"/>
    </symbol>
    <symbol id="icon-close" viewBox="0 0 32 32">
      <path fill="none" stroke="#f4c05d" stroke-width="1.333" d="M16 .667C24.468.667 31.333 7.532 31.333 16S24.468 31.333 16 31.333.667 24.468.667 16 7.532.667 16 .667z" style="stroke:var(--color3, #f4c05d)"/>
      <path fill="none" stroke="#fffdf7" stroke-linecap="round" stroke-linejoin="round" stroke-width="1.333" d="m7 7 9 9m0 0-9 9m9-9 9 9m-9-9 9-9" style="stroke:var(--color1, #fffdf7)"/>
    </symbol>
    <symbol id="icon-down-arrow" viewBox="0 0 32 32">
      <path fill="none" stroke="#fffdf7" stroke-linecap="round" stroke-linejoin="round" stroke-width="1.333" d="M9.333 13.333 16 20l6.667-6.667" style="stroke:var(--color1, #fffdf7)"/>
    </symbol>
    <symbol id="icon-email" viewBox="0 0 32 32">
      <path fill="#f4c05d" d="M5.333 26.667c-.733 0-1.361-.261-1.883-.783s-.783-1.15-.784-1.884V8c0-.733.261-1.361.784-1.883s1.15-.783 1.883-.784h21.333c.733 0 1.361.261 1.884.784s.784 1.15.783 1.883v16c0 .733-.261 1.361-.783 1.884s-1.15.784-1.884.783H5.333zM16 17.333 5.333 10.666v13.333h21.333V10.666l-10.667 6.667zm0-2.666L26.667 8H5.334l10.667 6.667zm-10.667-4z" style="fill:var(--color3, #f4c05d)"/>
    </symbol>
    <symbol id="icon-honeybee" viewBox="0 0 32 32">
      <path fill="#516c3d" d="M16 0c8.837 0 16 7.163 16 16s-7.163 16-16 16S0 24.837 0 16 7.163 0 16 0z" style="fill:var(--color4, #516c3d)"/>
      <path fill="#3e3a36" d="M18.57 1.041c-1.48-.03-2.79.66-3.63 1.74l-.02.03-.03.04a.463.463 0 0 0-.03.04l-4.11 5.535a9.004 9.004 0 0 0-4.028 2.6c-.269.01-.533.037-.792.082v-.107c0-1.1-.61-2.08-1.59-2.57l-.68-.38a.496.496 0 0 0-.383-.024.503.503 0 0 0-.311.636.503.503 0 0 0 .253.287l.67.38c.64.32 1.04.96 1.04 1.67v.373a6 6 0 0 0-3.93 5.648c0 3.233 2.547 5.885 5.74 5.996a9.004 9.004 0 0 0 3.74 2.49v.184c0 .51-.2 1-.56 1.36l-.65.65c-.29.29-.29.77 0 1.06.15.15.34.22.53.22s.38-.07.53-.22l.65-.65a3.44 3.44 0 0 0 .995-2.225c.399.065.803.104 1.207.115h3.822c.07.794.41 1.534.986 2.11l.65.65c.15.15.34.22.53.22s.38-.07.53-.22c.29-.29.29-.77 0-1.06l-.65-.65a1.905 1.905 0 0 1-.535-1.05h.595c.667 0 1.332-.083 1.978-.248.124.363.359.679.671.903s.687.344 1.071.343h1.47c.41 0 .75-.35.75-.76s-.34-.75-.75-.75h-1.47a.34.34 0 0 1-.327-.245 7.998 7.998 0 0 0 3.365-2.964l3.496-4.814.876-.187c.29-.07.29-.48 0-.54l-.876-.187-3.496-4.814a8.006 8.006 0 0 0-4.014-3.234 4.48 4.48 0 0 0 1.126-3.085c-.06-2.39-2.02-4.339-4.41-4.379zm1.348 22.905a6.07 6.07 0 0 1-.808.054h-2.504V10.02h2.504c.273 0 .542.018.808.054v13.872zm5-3.76v-6.353l2.306 3.177-2.306 3.176zM8.075 21.505c.192-.243.296-.543.295-.853v-7.27c0-.325-.113-.623-.301-.856a7 7 0 0 1 3.537-2.265v13.502a6.996 6.996 0 0 1-3.531-2.258zM5.44 18a.997.997 0 0 1-1-1 .997.997 0 0 1 1-1 .997.997 0 0 1 1 1 .997.997 0 0 1-1 1z" style="fill:var(--color2, #3e3a36)"/>
      <path fill="#f4c05d" d="M19.918 23.946a6.07 6.07 0 0 1-.808.054h-2.504V10.02h2.504c.273 0 .542.018.808.054v13.872zM8.075 21.505c.192-.243.296-.543.295-.853v-7.27c0-.325-.113-.623-.301-.856a7 7 0 0 1 3.537-2.265v13.502a6.996 6.996 0 0 1-3.531-2.258z" style="fill:var(--color3, #f4c05d)"/>
    </symbol>
    <symbol id="icon-menu" viewBox="0 0 32 32">
      <path fill="none" stroke="#f4c05d" stroke-width="1.333" d="M16 .667C24.468.667 31.333 7.532 31.333 16S24.468 31.333 16 31.333.667 24.468.667 16 7.532.667 16 .667z" style="stroke:var(--color3, #f4c05d)"/>
      <path fill="none" stroke="#fffdf7" stroke-linecap="round" stroke-width="1.333" d="M7.5 9.5h17m-17 12h17m-17-6h17" style="stroke:var(--color1, #fffdf7)"/>
    </symbol>
    <symbol id="icon-pin" viewBox="0 0 32 32">
      <path fill="none" stroke="#f4c05d" stroke-linecap="round" stroke-linejoin="round" stroke-width="2.667" d="M16 17.333a4 4 0 1 0 0-8 4 4 0 0 0 0 8z" style="stroke:var(--color3, #f4c05d)"/>
      <path fill="none" stroke="#f4c05d" stroke-linecap="round" stroke-linejoin="round" stroke-width="2.667" d="M16 2.667A10.666 10.666 0 0 0 5.334 13.333c0 2.523.536 4.173 2 6l8.667 10 8.667-10c1.464-1.827 2-3.477 2-6A10.666 10.666 0 0 0 16.001 2.667z" style="stroke:var(--color3, #f4c05d)"/>
    </symbol>
  </defs>
</svg>
